<svg height="512pt" viewBox="0 0 512 512" width="512pt" xmlns="http://www.w3.org/2000/svg"><path d="m480 512h-448c-17.679688 0-32-14.320312-32-32v-448c0-17.679688 14.320312-32 32-32h448c17.679688 0 32 14.320312 32 32v448c0 17.679688-14.320312 32-32 32zm0 0" fill="#77959e"/><g fill="#fff"><path d="m116.609375 370.144531-51.601563-68.800781 51.601563-68.800781c5.292969-7.070313 15.328125-8.496094 22.398437-3.199219 7.070313 5.296875 8.496094 15.328125 3.199219 22.398438l-37.199219 49.601562 37.199219 49.601562c5.296875 7.070313 3.871094 17.085938-3.199219 22.398438-7.070312 5.296875-17.105468 3.855469-22.398437-3.199219zm0 0"/><path d="m372.992188 373.328125c-7.070313-5.296875-8.496094-15.328125-3.199219-22.398437l37.199219-49.601563-37.199219-49.601563c-5.296875-7.070312-3.871094-17.085937 3.199219-22.398437 7.070312-5.296875 17.105468-3.871094 22.398437 3.199219l51.601563 68.800781-51.601563 68.800781c-5.292969 7.070313-15.328125 8.511719-22.398437 3.199219zm0 0"/><path d="m178.046875 395.457031c-6.800781-5.632812-7.742187-15.714843-2.109375-22.527343l135.488281-163.617188c5.628907-6.800781 15.710938-7.761719 22.527344-2.113281 6.800781 5.632812 7.742187 15.710937 2.109375 22.527343l-135.488281 163.617188c-5.628907 6.800781-15.710938 7.746094-22.527344 2.113281zm0 0"/><path d="m416 64h32v32h-32zm0 0"/><path d="m352 64h32v32h-32zm0 0"/></g><path d="m0 64h320v32h-320zm0 0" fill="#62808c"/></svg>